HIERARCHY
ROOT Hips
{
	OFFSET 0.000000 88.474243 0.000000
	CHANNELS 6 Xposition Yposition Zposition Zrotation Yrotation Xrotation 
	JOINT Hips_Spine
	{
		OFFSET 0.000000 0.000000 0.000000
		CHANNELS 3 Zrotation Yrotation Xrotation
		JOINT Spine
		{
			OFFSET 0.005100 8.711998 -0.691000
			CHANNELS 3 Zrotation Yrotation Xrotation
			JOINT Spine1
			{
				OFFSET -0.009200 8.660301 -1.275000
				CHANNELS 3 Zrotation Yrotation Xrotation
				JOINT Spine2
				{
					OFFSET 0.006300 9.852501 -1.857000
					CHANNELS 3 Zrotation Yrotation Xrotation
					JOINT Spine2_Neck
					{
						OFFSET 0.000000 0.000000 0.000000
						CHANNELS 3 Zrotation Yrotation Xrotation
						JOINT Neck
						{
							OFFSET 0.016300 11.420799 -0.263300
							CHANNELS 3 Zrotation Yrotation Xrotation
							End Site #name: Head
							{
								OFFSET -0.019200 9.262405 2.362500
							}
						}
					}
					JOINT Spine2_LeftShoulder
					{
						OFFSET 0.000000 0.000000 0.000000
						CHANNELS 3 Zrotation Yrotation Xrotation
						JOINT LeftShoulder
						{
							OFFSET 5.616900 6.732201 -0.345700
							CHANNELS 3 Zrotation Yrotation Xrotation
							JOINT LeftArm
							{
								OFFSET 10.664888 -0.183372 -2.440700
								CHANNELS 3 Zrotation Yrotation Xrotation
								JOINT LeftForeArm
								{
									OFFSET 27.459126 0.000000 0.000000
									CHANNELS 3 Zrotation Yrotation Xrotation
									End Site #name: LeftHand
									{
										OFFSET 21.306858 0.000000 0.000000
									}
								}
							}
						}
					}
					JOINT Spine2_RightShoulder
					{
						OFFSET 0.000000 0.000000 0.000000
						CHANNELS 3 Zrotation Yrotation Xrotation
						JOINT RightShoulder
						{
							OFFSET -5.580300 6.737503 -0.344400
							CHANNELS 3 Zrotation Yrotation Xrotation
							JOINT RightArm
							{
								OFFSET -10.679335 -0.188484 -2.383900
								CHANNELS 3 Zrotation Yrotation Xrotation
								JOINT RightForeArm
								{
									OFFSET -27.503529 0.000000 0.000000
									CHANNELS 3 Zrotation Yrotation Xrotation
									End Site #name: RightHand
									{
										OFFSET -21.306808 0.000000 0.000000
									}
								}
							}
						}
					}
				}
			}
		}
	}
	JOINT Hips_LeftUpLeg
	{
		OFFSET 0.000000 0.000000 0.000000
		CHANNELS 3 Zrotation Yrotation Xrotation
		JOINT LeftUpLeg
		{
			OFFSET 6.857700 -6.739601 0.312100
			CHANNELS 3 Zrotation Yrotation Xrotation
			JOINT LeftLeg
			{
				OFFSET -0.367590 -34.731552 -4.572400
				CHANNELS 3 Zrotation Yrotation Xrotation
				End Site #name: LeftFoot
				{
					OFFSET 0.367590 -34.656704 -6.067400
				}
			}
		}
	}
	JOINT Hips_RightUpLeg
	{
		OFFSET 0.000000 0.000000 0.000000
		CHANNELS 3 Zrotation Yrotation Xrotation
		JOINT RightUpLeg
		{
			OFFSET -6.876100 -6.733299 0.301000
			CHANNELS 3 Zrotation Yrotation Xrotation
			JOINT RightLeg
			{
				OFFSET 0.347353 -34.795158 -4.515900
				CHANNELS 3 Zrotation Yrotation Xrotation
				End Site #name: RightFoot
				{
					OFFSET -0.347353 -34.589367 -6.070300
				}
			}
		}
	}
}
MOTION
Frames: 19
Frame Time: 0.041667
0.016893 0.011677 0.001201 -3.629711 -1.294299 -3.206943 0.000000 0.000000 0.000000 1.680959 1.850636 15.699337 0.759637 1.232818 3.112013 0.000000 0.000000 0.000000 0.931137 1.090082 1.377301 1.656991 -0.571228 4.717577 0.823574 0.380189 3.636051 -11.209933 -5.990005 1.632068 -60.081207 2.283306 4.960799 0.359954 -18.577836 -0.210587 1.491126 0.855127 3.771925 9.402288 -3.286862 0.677155 67.539877 4.150718 30.017837 -0.086989 18.689696 0.829384 0.000000 0.000000 0.000000 6.960079 8.784284 -43.873823 6.962421 -3.632136 48.743938 0.000000 0.000000 0.000000 -5.846172 -6.364633 -36.635170 -0.037194 -1.482937 49.283027 
0.020992 0.023329 -0.076869 -3.231856 -0.475482 -2.947099 0.000000 -0.000000 0.000000 0.933782 0.823711 13.233758 0.765248 0.439287 2.860936 0.000000 0.000000 0.000000 0.851189 0.586491 2.772512 1.454344 -0.736195 5.138362 0.903189 0.621553 3.371970 -9.464696 -3.648623 0.560408 -64.510573 -0.847440 0.882835 0.041504 -23.772241 0.947386 0.518502 0.489476 3.108664 9.388703 -2.709935 0.523258 68.247043 8.507823 21.434814 0.124857 24.560734 0.429027 0.000000 0.000000 -0.000000 6.736671 11.172875 -42.643757 5.690769 -3.450703 47.599108 0.000000 0.000000 0.000000 -5.115853 -6.691004 -36.683861 -0.100855 -1.794015 48.943047 
0.011844 0.008419 -0.124938 -2.838707 0.082598 -2.928829 0.000000 0.000000 -0.000000 1.918514 1.083926 14.646005 0.440752 0.520444 2.649880 0.000000 0.000000 0.000000 0.610030 0.376238 2.552871 1.535069 0.093911 5.152942 0.815579 0.657423 2.874219 -9.660928 -3.090418 0.321561 -63.353226 0.168497 1.843144 0.022263 -24.315514 0.835321 0.399016 0.599769 2.884952 8.641876 -2.345972 0.529590 67.714896 9.836313 21.642652 0.150461 30.535580 0.099631 0.000000 0.000000 -0.000000 6.614720 10.745670 -41.870440 5.145435 -4.057577 46.503003 0.000000 0.000000 0.000000 -5.261632 -6.266786 -36.274670 0.531761 -1.404331 48.704173 
0.004923 -0.005441 -0.174139 -2.671155 0.491414 -3.182914 0.000000 0.000000 -0.000000 1.900870 1.355719 14.865297 0.387003 0.475041 2.981146 0.000000 0.000000 0.000000 0.662060 0.412550 2.484783 1.034121 0.100681 6.207294 0.738689 0.540636 2.779901 -7.935284 -1.986951 0.088390 -64.041931 -1.111362 -0.748241 0.003729 -24.459023 0.851485 0.447287 0.618608 3.104695 8.225125 -2.738837 0.482796 69.066406 11.953647 21.246827 0.095444 36.024976 -0.062392 -0.000000 0.000000 -0.000000 6.428842 10.647343 -41.122350 4.954953 -4.147076 45.396690 0.000000 0.000000 0.000000 -5.263051 -6.237959 -36.166217 0.924002 -1.157613 48.856842 
0.004989 -0.015517 -0.219724 -2.620151 0.880348 -3.392536 0.000000 0.000000 -0.000000 1.752638 1.653594 15.232055 0.349919 0.441218 3.178534 0.000000 0.000000 0.000000 0.655084 0.409144 2.568072 0.912205 0.053806 7.076921 0.733515 0.473131 2.817926 -7.441583 -1.054000 -0.089098 -63.920334 -2.244006 -2.110419 0.006783 -25.311688 0.822654 0.451089 0.600319 3.313187 8.702572 -3.176247 0.373905 69.664195 13.419328 21.096102 0.038155 40.331216 -0.161847 -0.000000 0.000000 -0.000000 6.400536 10.709598 -40.875487 4.717766 -4.050412 45.179072 0.000000 0.000000 0.000000 -5.333056 -6.184550 -36.197970 1.034776 -1.169632 49.016669 
0.009328 -0.020816 -0.261844 -2.623718 1.014953 -3.551548 0.000000 0.000000 -0.000000 1.502892 1.691388 15.419894 0.353311 0.404583 3.292630 0.000000 0.000000 0.000000 0.637354 0.386813 2.687221 0.974809 0.058857 7.442442 0.724204 0.438058 2.931141 -7.427352 -0.569490 -0.182632 -63.486222 -2.891290 -1.836201 0.026198 -26.482991 0.761589 0.412266 0.583413 3.427337 9.351775 -3.337358 0.349493 69.473249 14.394332 20.348324 -0.006773 42.286154 -0.191181 -0.000000 0.000000 -0.000000 6.475654 10.862338 -40.815473 4.627027 -4.066290 45.298787 0.000000 0.000000 -0.000000 -5.409325 -6.100243 -36.311693 1.124633 -1.158680 49.246212 
0.015728 -0.021685 -0.301624 -2.635399 0.952113 -3.603515 0.000000 0.000000 -0.000000 1.291607 1.677354 15.513942 0.327238 0.394574 3.337620 0.000000 0.000000 0.000000 0.616427 0.372483 2.761921 1.036736 0.020190 7.554162 0.685274 0.423106 3.012898 -7.357122 -0.103933 -0.266991 -63.019368 -3.072399 -0.993137 0.036955 -27.866881 0.772601 0.382831 0.574940 3.497123 9.801568 -3.289793 0.361132 69.097326 14.881784 19.764292 -0.014063 42.428321 -0.166845 -0.000000 0.000000 -0.000000 6.541136 10.956084 -40.808207 4.604063 -4.113367 45.473299 0.000000 0.000000 -0.000000 -5.448164 -6.029439 -36.366537 1.175534 -1.120675 49.338439 
0.021164 -0.021169 -0.339677 -2.648529 0.875709 -3.588096 0.000000 0.000000 0.000000 1.140880 1.686149 15.534840 0.288602 0.391217 3.357180 0.000000 0.000000 0.000000 0.593679 0.360769 2.813690 1.051902 -0.006673 7.595776 0.657340 0.424465 3.079579 -7.304924 0.231183 -0.320006 -62.607727 -2.936511 -0.186561 0.040207 -29.173170 0.786361 0.352958 0.577958 3.519006 9.898227 -3.197955 0.400993 68.829284 14.945844 19.235749 0.003575 41.995904 -0.140703 -0.000000 0.000000 -0.000000 6.580650 10.947114 -40.856686 4.577425 -4.145292 45.630113 0.000000 0.000000 -0.000000 -5.455950 -5.987782 -36.354713 1.170012 -1.112150 49.320024 
0.022330 -0.020913 -0.376768 -2.670791 0.830912 -3.562768 0.000000 0.000000 0.000000 1.037323 1.683838 15.587747 0.261683 0.394900 3.380825 0.000000 0.000000 0.000000 0.576864 0.353981 2.867186 1.050358 -0.032177 7.623511 0.634079 0.429692 3.129419 -7.200005 0.514589 -0.374104 -62.407435 -2.543658 0.453006 0.037691 -30.348213 0.799673 0.327185 0.580475 3.539814 9.849651 -3.098655 0.435216 68.769722 14.808056 18.851108 0.024416 42.022754 -0.106902 -0.000000 0.000000 -0.000000 6.612668 10.917723 -40.925124 4.545615 -4.185342 45.758188 0.000000 0.000000 -0.000000 -5.446606 -5.979235 -36.370134 1.169887 -1.108859 49.302042 
0.020012 -0.021019 -0.412910 -2.692805 0.815841 -3.549291 0.000000 0.000000 0.000000 1.010004 1.699957 15.723335 0.243953 0.397393 3.408067 0.000000 0.000000 0.000000 0.564044 0.349470 2.902514 1.038684 -0.045345 7.647176 0.617254 0.430765 3.159540 -7.059403 0.809614 -0.446714 -62.357599 -2.153190 0.852107 0.036687 -31.462156 0.812218 0.309294 0.580786 3.566059 9.762214 -3.104832 0.450239 68.849004 14.560312 18.529117 0.037903 42.842074 -0.074572 -0.000000 0.000000 -0.000000 6.635107 10.878246 -40.991982 4.515551 -4.228985 45.855147 0.000000 0.000000 -0.000000 -5.430169 -5.986880 -36.431372 1.171084 -1.099664 49.347215 
0.014708 -0.020931 -0.448166 -2.714345 0.827472 -3.551002 0.000000 0.000000 0.000000 1.023928 1.709661 15.904626 0.228834 0.398826 3.440285 0.000000 0.000000 0.000000 0.552442 0.341682 2.937504 1.026218 -0.046620 7.698947 0.600399 0.427605 3.187481 -6.881650 1.086156 -0.525830 -62.435892 -1.888889 1.139170 0.037749 -32.316438 0.817163 0.293003 0.578086 3.606085 9.694218 -3.218855 0.448608 68.951044 14.225400 18.173230 0.046749 44.521947 -0.041741 0.000000 0.000000 -0.000000 6.654648 10.839546 -41.051196 4.495308 -4.267615 45.934634 0.000000 0.000000 -0.000000 -5.412927 -6.000381 -36.507904 1.167145 -1.093733 49.429583 
0.007094 -0.020231 -0.482693 -2.730707 0.855782 -3.558864 0.000000 0.000000 0.000000 1.054889 1.721978 16.133830 0.216704 0.398434 3.481660 0.000000 0.000000 0.000000 0.541699 0.333015 2.970081 1.015383 -0.046306 7.764790 0.584111 0.421675 3.216893 -6.688046 1.332427 -0.600910 -62.575322 -1.749575 1.400796 0.037445 -32.996939 0.825578 0.282107 0.572491 3.656526 9.652767 -3.396377 0.429475 68.977193 13.929382 17.649293 0.056504 47.052886 -0.003178 0.000000 0.000000 -0.000000 6.665414 10.805511 -41.099433 4.483454 -4.297536 45.995168 0.000000 0.000000 -0.000000 -5.399118 -6.016268 -36.590552 1.165867 -1.088089 49.526738 
-0.002290 -0.018986 -0.516634 -2.742608 0.887990 -3.570846 0.000000 0.000000 0.000000 1.085016 1.737969 16.358903 0.200946 0.402564 3.531782 0.000000 0.000000 0.000000 0.529361 0.324323 2.999996 1.009274 -0.047188 7.851252 0.567333 0.413879 3.245999 -6.523521 1.552252 -0.667999 -62.735315 -1.679509 1.627053 0.040123 -33.505255 0.832667 0.268239 0.569835 3.708735 9.621173 -3.613345 0.400849 68.906895 13.635958 16.919863 0.064624 50.169945 0.035435 0.000000 0.000000 -0.000000 6.674975 10.781012 -41.143152 4.474200 -4.317545 46.059576 0.000000 0.000000 -0.000000 -5.388921 -6.034243 -36.670078 1.162239 -1.083996 49.625782 
-0.012892 -0.017204 -0.550246 -2.750542 0.920973 -3.582100 0.000000 0.000000 0.000000 1.094101 1.750011 16.563305 0.186221 0.408279 3.587581 0.000000 0.000000 0.000000 0.515794 0.315213 3.029225 1.010134 -0.056995 7.952113 0.549264 0.405885 3.276522 -6.384140 1.751615 -0.725415 -62.903214 -1.636724 1.887158 0.041068 -33.913388 0.839198 0.252145 0.568802 3.759097 9.588288 -3.803911 0.373645 68.779335 13.328287 16.002254 0.076411 53.518234 0.074808 0.000000 0.000000 -0.000000 6.680290 10.758189 -41.178405 4.467656 -4.336665 46.115069 0.000000 0.000000 -0.000000 -5.383258 -6.050138 -36.725316 1.158613 -1.079667 49.703334 
-0.024145 -0.015071 -0.583740 -2.756788 0.950151 -3.590940 0.000000 0.000000 0.000000 1.089013 1.755874 16.751548 0.173500 0.410857 3.642617 0.000000 0.000000 0.000000 0.502339 0.306568 3.057413 1.018476 -0.078923 8.069089 0.532914 0.397199 3.320824 -6.269284 1.941715 -0.774962 -63.037777 -1.562654 2.162636 0.043028 -34.269723 0.845657 0.235324 0.568086 3.804557 9.533628 -3.944380 0.354668 68.602760 13.018399 15.056759 0.092258 57.504517 0.115257 0.000000 0.000000 -0.000000 6.684828 10.735475 -41.208176 4.461243 -4.354004 46.168687 0.000000 0.000000 -0.000000 -5.376967 -6.063922 -36.765432 1.157175 -1.074947 49.766880 
-0.035447 -0.012516 -0.617239 -2.762064 0.977261 -3.596708 0.000000 0.000000 0.000000 1.069174 1.749725 16.930746 0.163934 0.409856 3.696198 0.000000 0.000000 0.000000 0.489635 0.297714 3.089275 1.026077 -0.108166 8.197343 0.516775 0.388591 3.364899 -6.171887 2.124314 -0.821890 -63.165581 -1.475192 2.415024 0.045933 -34.589705 0.850531 0.218116 0.567447 3.846922 9.457698 -4.030916 0.345091 68.420484 12.696932 14.087124 0.114431 61.819513 0.155138 0.000000 0.000000 -0.000000 6.685302 10.716423 -41.237952 4.455400 -4.371648 46.222167 0.000000 0.000000 -0.000000 -5.372306 -6.075362 -36.797114 1.153942 -1.074543 49.817455 
-0.046277 -0.009503 -0.650860 -2.765765 1.001952 -3.600482 0.000000 0.000000 0.000000 1.052127 1.745438 17.099065 0.154385 0.407560 3.742952 0.000000 0.000000 0.000000 0.477357 0.289112 3.119536 1.031946 -0.138922 8.325402 0.502034 0.381976 3.407374 -6.079024 2.305305 -0.864173 -63.271514 -1.383087 2.659591 0.048374 -34.897486 0.855732 0.200709 0.566163 3.882200 9.368627 -4.086003 0.340763 68.229757 12.418698 13.296267 0.142585 65.627407 0.200316 0.000000 0.000000 -0.000000 6.686215 10.698678 -41.267469 4.449454 -4.390132 46.271142 0.000000 0.000000 -0.000000 -5.366126 -6.087624 -36.828403 1.152197 -1.072429 49.864742 
-0.056696 -0.006091 -0.684586 -2.766721 1.022207 -3.602609 0.000000 0.000000 0.000000 1.039708 1.743433 17.244019 0.143300 0.405527 3.781968 0.000000 0.000000 0.000000 0.465363 0.281367 3.147161 1.037603 -0.169599 8.442340 0.487073 0.376699 3.444920 -5.996895 2.481732 -0.904094 -63.368105 -1.291170 2.895500 0.049863 -35.352857 0.860919 0.183258 0.565253 3.911050 9.280803 -4.127660 0.339512 68.017413 12.183333 12.725451 0.174360 68.535934 0.244381 0.000000 0.000000 -0.000000 6.686406 10.680982 -41.295093 4.443804 -4.404615 46.314852 0.000000 0.000000 0.000000 -5.360894 -6.096102 -36.852687 1.146066 -1.074084 49.905113 
-0.066776 -0.002429 -0.718427 -2.765630 1.038842 -3.604212 0.000000 0.000000 0.000000 1.022470 1.743399 17.372473 0.132819 0.404050 3.815841 0.000000 0.000000 0.000000 0.453869 0.274517 3.171055 1.040781 -0.197407 8.543525 0.471981 0.371347 3.479269 -5.918281 2.647438 -0.940869 -63.450718 -1.192729 3.099399 0.050093 -36.004144 0.867367 0.166805 0.564692 3.935742 9.177346 -4.191946 0.335087 67.840613 11.968361 12.214046 0.210892 70.663064 0.290978 0.000000 0.000000 -0.000000 6.688384 10.663233 -41.322800 4.433733 -4.421749 46.358800 0.000000 0.000000 0.000000 -5.353923 -6.103358 -36.877752 1.145634 -1.073675 49.942624 
